<?xml version="1.0" encoding="UTF-8"?>
<svg id="Layer_2" data-name="Layer 2" xmlns="http://www.w3.org/2000/svg" viewBox="0 0 252.45 340.59">
  <defs>
    <style>
      .cls-1 {
        fill: currentColor;
      }
    </style>
  </defs>
  <g id="Layer_1-2" data-name="Layer 1">
    <g>
      <path class="cls-1" d="M166.08,74.66H61.8l.22,66.38,52.55,51.97,26.17-24.88.23.11v22.5s-20.22,20.04-28.95,28.68v101.47l23.82-22.19.54-69.48,28.75-27.96s.54-56.38.54-57.23c.26-.19,39.28-37.62,39.28-37.62l1.34-106.39h-24.99l-.69,95.58-14.72,14.09.19-35.01ZM141.35,133.94l-26.74,25.7-28.37-29.26-.22-31.26h55.32v34.83Z"/>
      <path class="cls-1" d="M96.93,287.93v-90.3l-49.43-48.84-.65-85.92h119.16c.1-8.38.21-16.67.31-25.03h-102.19l-17.61-17.61-.3-19.57h-24.79l1.51,158.05,49.87,48.95v70.69l-23.98,23.2-23.83-22.99-.55-56.94H0l.84,66.76,48.03,46.38,48.05-46.82Z"/>
      <path class="cls-1" d="M200.6,301.6c-8.34-8.24-24.95-24.66-24.95-24.66l.45-30.37,27.77-26.94,1.12-93.56-24.86,24.86-.22,58.15-28.05,27.65-.31,50.31,48.73,47.71,50.99-49.07,1.19-71.85h-24.13l-.75,61.81-26.76,25.79s-.11.09-.21.17"/>
      <polygon class="cls-1" points="135.34 317.6 135.63 327.09 149.13 340.59 162.8 327.32 162.8 317.83 149.21 304.52 135.34 317.6"/>
    </g>
  </g>
</svg>